<svg width="38" height="39" viewBox="0 0 38 39" fill="none" xmlns="http://www.w3.org/2000/svg">
<path d="M37.1124 35.2939L28.9118 26.7262C31.3706 23.38 32.5186 19.1823 32.1228 14.9847C31.727 10.7871 29.8172 6.9039 26.7807 4.12279C23.7442 1.34167 19.8084 -0.12907 15.7717 0.0088981C11.7351 0.146866 7.89979 1.88322 5.04391 4.86572C2.18803 7.84823 0.525397 11.8535 0.393286 16.0692C0.261175 20.2848 1.66948 24.3951 4.33252 27.5662C6.99555 30.7374 10.7139 32.7319 14.7333 33.1452C18.7527 33.5585 22.7721 32.3597 25.9762 29.7919L34.1837 38.3651C34.3765 38.5664 34.6053 38.726 34.8572 38.835C35.109 38.9439 35.3789 39 35.6515 39C35.9241 39 36.194 38.9439 36.4459 38.835C36.6977 38.726 36.9265 38.5664 37.1193 38.3651C37.312 38.1638 37.4649 37.9248 37.5693 37.6618C37.6736 37.3988 37.7273 37.1169 37.7273 36.8322C37.7273 36.5475 37.6736 36.2656 37.5693 36.0026C37.4649 35.7396 37.312 35.5006 37.1193 35.2993L37.1124 35.2939ZM4.56393 16.6273C4.56393 14.202 5.2526 11.8311 6.54285 9.81444C7.8331 7.79782 9.66699 6.22606 11.8126 5.29791C13.9582 4.36976 16.3192 4.12692 18.597 4.60008C20.8747 5.07325 22.967 6.24117 24.6092 7.95617C26.2514 9.67116 27.3697 11.8562 27.8228 14.235C28.2759 16.6137 28.0433 19.0794 27.1546 21.3201C26.2658 23.5609 24.7608 25.4761 22.8298 26.8235C20.8988 28.171 18.6286 28.8902 16.3062 28.8902C13.1929 28.8869 10.2081 27.5938 8.00668 25.2948C5.80528 22.9958 4.56713 19.8786 4.56393 16.6273Z" fill="#032169"/>
</svg>
